<svg width="65" height="56" viewBox="0 0 65 56" fill="none" xmlns="http://www.w3.org/2000/svg">
<path d="M32.4864 41.125V14.875M21.5489 32.375C23.7122 32.375 25.8268 33.0165 27.6255 34.2183C29.4241 35.4201 30.826 37.1283 31.6539 39.1269C32.4817 41.1255 32.6983 43.3246 32.2763 45.4463C31.8542 47.568 30.8125 49.5168 29.2829 51.0465C27.7533 52.5761 25.8044 53.6178 23.6827 54.0398C21.5611 54.4619 19.3619 54.2453 17.3633 53.4174C15.3648 52.5896 13.6565 51.1877 12.4547 49.389C11.2529 47.5904 10.6114 45.4757 10.6114 43.3125V41.4805M43.4239 32.375C41.2607 32.375 39.146 33.0165 37.3474 34.2183C35.5487 35.4201 34.1468 37.1283 33.319 39.1269C32.4912 41.1255 32.2746 43.3246 32.6966 45.4463C33.1186 47.568 34.1603 49.5168 35.6899 51.0465C37.2196 52.5761 39.1685 53.6178 41.2901 54.0398C43.4118 54.4619 45.611 54.2453 47.6095 53.4174C49.6081 52.5896 51.3163 51.1877 52.5181 49.389C53.72 47.5904 54.3614 45.4757 54.3614 43.3125V41.4805M17.1739 42.2188H14.9864C11.8841 42.2271 8.87905 41.1362 6.50451 39.1396C4.12996 37.1431 2.53941 34.3699 2.01504 31.3122C1.49067 28.2545 2.06638 25.1099 3.64004 22.4362C5.2137 19.7626 7.68355 17.7328 10.6114 16.707V12.6875C10.6114 9.78669 11.7638 7.0047 13.8149 4.95352C15.8661 2.90234 18.6481 1.75 21.5489 1.75C24.4497 1.75 27.2317 2.90234 29.2829 4.95352C31.3341 7.0047 32.4864 9.78669 32.4864 12.6875M32.4864 12.6875V43.3125M32.4864 12.6875C32.4864 9.78669 33.6388 7.0047 35.6899 4.95352C37.7411 2.90234 40.5231 1.75 43.4239 1.75C46.3247 1.75 49.1067 2.90234 51.1579 4.95352C53.2091 7.0047 54.3614 9.78669 54.3614 12.6875V16.707C57.2893 17.7328 59.7591 19.7626 61.3328 22.4362C62.9065 25.1099 63.4822 28.2545 62.9578 31.3122C62.4334 34.3699 60.8429 37.1431 58.4683 39.1396C56.0938 41.1362 53.0888 42.2271 49.9864 42.2188H47.7989M21.5489 15.9688V18.1562C21.5489 20.1868 20.7423 22.1342 19.3065 23.57C17.8706 25.0059 15.9232 25.8125 13.8927 25.8125M43.4239 15.9688V18.1562C43.4239 20.1868 44.2306 22.1342 45.6664 23.57C47.1022 25.0059 49.0496 25.8125 51.0802 25.8125" stroke="white" stroke-width="3" stroke-linecap="round" stroke-linejoin="round"/>
</svg>
