<svg width="74" height="74" viewBox="0 0 74 74" fill="none" xmlns="http://www.w3.org/2000/svg">
<path d="M63.9231 28.9231H72M63.9231 45.0769H72M2 28.9231H10.0769M2 45.0769H10.0769M45.0769 63.9231V72M28.9231 63.9231V72M45.0769 2V10.0769M28.9231 2V10.0769M27.5769 27.5769H46.4231V46.4231H27.5769V27.5769ZM12.7692 10.0769H61.2308C62.7177 10.0769 63.9231 11.2823 63.9231 12.7692V61.2308C63.9231 62.7177 62.7177 63.9231 61.2308 63.9231H12.7692C11.2823 63.9231 10.0769 62.7177 10.0769 61.2308V12.7692C10.0769 11.2823 11.2823 10.0769 12.7692 10.0769Z" stroke="white" stroke-width="3" stroke-linecap="round" stroke-linejoin="round"/>
</svg>
