<svg width="71" height="56" viewBox="0 0 71 56" fill="none" xmlns="http://www.w3.org/2000/svg">
<path fill-rule="evenodd" clip-rule="evenodd" d="M41.2876 3.86371C41.2876 3.40397 41.67 3 42.1804 3H66.1089C66.6194 3 67.0018 3.40397 67.0018 3.86371V51.138C67.0018 51.5977 66.6194 52.0017 66.1089 52.0017H42.1804C41.67 52.0017 41.2876 51.5977 41.2876 51.138V3.86371ZM42.1804 0C40.0479 0 38.2876 1.71257 38.2876 3.86371V51.138C38.2876 53.2891 40.0479 55.0017 42.1804 55.0017H66.1089C68.2415 55.0017 70.0018 53.2891 70.0018 51.138V3.86371C70.0018 1.71257 68.2415 0 66.1089 0H42.1804ZM49.3589 9.45639C48.5305 9.45639 47.8589 10.128 47.8589 10.9564C47.8589 11.7848 48.5305 12.4564 49.3589 12.4564H58.9288C59.7572 12.4564 60.4288 11.7848 60.4288 10.9564C60.4288 10.128 59.7572 9.45639 58.9288 9.45639H49.3589ZM6.28556 14.8179C5.40829 14.8179 4.57059 15.1623 3.9558 15.7696C3.34163 16.3763 3 17.1952 3 18.0452V39.318C3 40.1679 3.34163 40.9869 3.9558 41.5935C4.57059 42.2009 5.40829 42.5453 6.28556 42.5453H30.2134C31.0418 42.5453 31.7134 43.2169 31.7134 44.0453C31.7134 44.8737 31.0418 45.5453 30.2134 45.5453H24.5322V52.002H30.217C31.0455 52.002 31.717 52.6736 31.717 53.502C31.717 54.3304 31.0455 55.002 30.217 55.002H15.8604C15.0319 55.002 14.3604 54.3304 14.3604 53.502C14.3604 52.6736 15.0319 52.002 15.8604 52.002H21.5322V45.5453H6.28556C4.62442 45.5453 3.02766 44.8936 1.84752 43.7278C0.666749 42.5614 0 40.9755 0 39.318V18.0452C0 16.3876 0.666749 14.8017 1.84752 13.6353C3.02766 12.4695 4.62442 11.8179 6.28556 11.8179H30.2134C31.0418 11.8179 31.7134 12.4894 31.7134 13.3179C31.7134 14.1463 31.0418 14.8179 30.2134 14.8179H6.28556ZM47.8589 20.4096C47.8589 19.5812 48.5305 18.9096 49.3589 18.9096H58.9288C59.7572 18.9096 60.4288 19.5812 60.4288 20.4096C60.4288 21.238 59.7572 21.9096 58.9288 21.9096H49.3589C48.5305 21.9096 47.8589 21.238 47.8589 20.4096ZM57.7292 42.8647C57.7292 44.8226 56.1225 46.4098 54.1405 46.4098C52.1585 46.4098 50.5518 44.8226 50.5518 42.8647C50.5518 40.9069 52.1585 39.3197 54.1405 39.3197C56.1225 39.3197 57.7292 40.9069 57.7292 42.8647Z" fill="white"/>
</svg>
