<svg width="74" height="58" viewBox="0 0 74 58" fill="none" xmlns="http://www.w3.org/2000/svg">
<path d="M71.9863 31.0123C70.3033 28.5093 68.1174 26.4781 65.6029 25.0807C63.0884 23.6833 60.3149 22.9582 57.5036 22.9635C59.3361 22.9655 61.1318 22.3879 62.68 21.298C64.2281 20.2081 65.4653 18.6511 66.2468 16.8087C67.0284 14.9664 67.3221 12.9149 67.0937 10.8939C66.8652 8.87293 66.1241 6.96594 64.9568 5.39576C63.7895 3.82559 62.2442 2.65708 60.5016 2.02676C58.759 1.39645 56.891 1.33037 55.1159 1.83624C53.3408 2.34211 51.7318 3.39904 50.4771 4.88353C49.2223 6.36802 48.3735 8.21877 48.0299 10.2195M1.98633 31.0123C3.66934 28.5093 5.85528 26.4781 8.36978 25.0807C10.8843 23.6833 13.6578 22.9582 16.4691 22.9635C14.6365 22.9655 12.8417 22.3879 11.2935 21.298C9.74537 20.2081 8.50823 18.6511 7.72666 16.8087C6.94509 14.9664 6.65136 12.9149 6.8798 10.8939C7.10825 8.87293 7.84942 6.96594 9.01673 5.39576C10.184 3.82559 11.7293 2.65708 13.4719 2.02676C15.2145 1.39645 17.0825 1.33037 18.8576 1.83624C20.6327 2.34211 22.2417 3.39904 23.4964 4.88353C24.7512 6.36802 25.6 8.21877 25.9436 10.2195M19.6065 56.5C21.1961 52.8817 23.668 49.8323 26.7406 47.6993C29.8133 45.5663 33.3632 44.4354 36.9859 44.4354C40.6085 44.4354 44.1584 45.5663 47.2311 47.6993C50.3037 49.8323 52.7756 52.8817 54.3652 56.5M49.0553 31.0122C49.0553 38.4209 43.6518 44.4269 36.9863 44.4269C30.3208 44.4269 24.9174 38.4209 24.9174 31.0122C24.9174 23.6035 30.3208 17.5976 36.9863 17.5976C43.6518 17.5976 49.0553 23.6035 49.0553 31.0122Z" stroke="white" stroke-width="3" stroke-linecap="round" stroke-linejoin="round"/>
</svg>
