<svg width="148" height="40" viewBox="0 0 148 40" fill="none" xmlns="http://www.w3.org/2000/svg">
<path d="M46.5645 26.473H55.7968V23.6633H49.8458V13.0798H46.5645V26.473Z" fill="#9F9FAC"/>
<path d="M61.2672 24.5998C59.9509 24.5998 59.265 23.4385 59.265 21.6964C59.265 19.9544 59.9509 18.7743 61.2672 18.7743C62.5834 18.7743 63.2879 19.9544 63.2879 21.6964C63.2879 23.4385 62.5834 24.5998 61.2672 24.5998ZM61.2857 26.7727C64.3446 26.7727 66.3468 24.5811 66.3468 21.6964C66.3468 18.8117 64.3446 16.6201 61.2857 16.6201C58.2453 16.6201 56.2061 18.8117 56.2061 21.6964C56.2061 24.5811 58.2453 26.7727 61.2857 26.7727Z" fill="#9F9FAC"/>
<path d="M71.6414 29.7886C73.0503 29.7886 74.2925 29.4701 75.1267 28.7209C75.8868 28.0278 76.3874 26.9788 76.3874 25.5365V16.8824H73.4953V17.9127H73.4582C72.902 17.1072 72.0493 16.6014 70.7886 16.6014C68.4342 16.6014 66.8027 18.587 66.8027 21.3968C66.8027 24.3376 68.7864 25.9486 70.9184 25.9486C72.0678 25.9486 72.7908 25.4803 73.347 24.8434H73.4211V25.7987C73.4211 26.9601 72.8835 27.6344 71.6043 27.6344C70.6032 27.6344 70.1027 27.2036 69.9358 26.6978H67.0067C67.3033 28.7021 69.0274 29.7886 71.6414 29.7886ZM71.6229 23.682C70.492 23.682 69.7504 22.7454 69.7504 21.3031C69.7504 19.842 70.492 18.9054 71.6229 18.9054C72.8835 18.9054 73.5509 19.9919 73.5509 21.2844C73.5509 22.633 72.9391 23.682 71.6229 23.682Z" fill="#9F9FAC"/>
<path d="M82.3346 24.5998C81.0183 24.5998 80.3324 23.4385 80.3324 21.6964C80.3324 19.9544 81.0183 18.7743 82.3346 18.7743C83.6508 18.7743 84.3553 19.9544 84.3553 21.6964C84.3553 23.4385 83.6508 24.5998 82.3346 24.5998ZM82.3531 26.7727C85.412 26.7727 87.4145 24.5811 87.4145 21.6964C87.4145 18.8117 85.412 16.6201 82.3531 16.6201C79.3127 16.6201 77.2734 18.8117 77.2734 21.6964C77.2734 24.5811 79.3127 26.7727 82.3531 26.7727Z" fill="#9F9FAC"/>
<path d="M88.2969 26.473H91.3187V16.8824H88.2969V26.473ZM88.2969 15.5524H91.3187V13.0798H88.2969V15.5524Z" fill="#9F9FAC"/>
<path d="M92.6289 29.6387H95.6508V25.4803H95.6878C96.2811 26.2857 97.1524 26.7728 98.376 26.7728C100.86 26.7728 102.51 24.7872 102.51 21.6777C102.51 18.7931 100.971 16.6014 98.4501 16.6014C97.1524 16.6014 96.2255 17.1821 95.5766 18.0438H95.521V16.8824H92.6289V29.6387ZM97.5973 24.4126C96.2996 24.4126 95.5581 23.3449 95.5581 21.7901C95.5581 20.2354 96.2255 19.0553 97.5417 19.0553C98.8394 19.0553 99.4512 20.1417 99.4512 21.7901C99.4512 23.4198 98.7468 24.4126 97.5973 24.4126Z" fill="#9F9FAC"/>
<path d="M107.431 26.7728C109.915 26.7728 111.75 25.6863 111.75 23.5884C111.75 21.1345 109.785 20.7037 108.117 20.4227C106.912 20.1979 105.836 20.1043 105.836 19.4299C105.836 18.8305 106.411 18.5495 107.153 18.5495C107.987 18.5495 108.562 18.8118 108.673 19.6734H111.454C111.305 17.7815 109.859 16.6014 107.171 16.6014C104.928 16.6014 103.074 17.6504 103.074 19.6734C103.074 21.9212 104.835 22.3708 106.485 22.6518C107.746 22.8766 108.895 22.9702 108.895 23.8319C108.895 24.45 108.321 24.7872 107.412 24.7872C106.411 24.7872 105.781 24.3189 105.669 23.3636H102.814C102.907 25.4803 104.65 26.7728 107.431 26.7728Z" fill="#9F9FAC"/>
<path d="M115.855 26.7541C117.171 26.7541 118.005 26.2296 118.691 25.293H118.747V26.4731H121.639V16.8824H118.617V22.2397C118.617 23.3823 117.987 24.1691 116.948 24.1691C115.984 24.1691 115.521 23.5884 115.521 22.5394V16.8824H112.518V23.1763C112.518 25.3117 113.667 26.7541 115.855 26.7541Z" fill="#9F9FAC"/>
<path d="M122.953 26.4731H125.975V21.0971C125.975 19.9544 126.531 19.149 127.477 19.149C128.385 19.149 128.811 19.7484 128.811 20.7786V26.4731H131.833V21.0971C131.833 19.9544 132.371 19.149 133.335 19.149C134.243 19.149 134.67 19.7484 134.67 20.7786V26.4731H137.692V20.2354C137.692 18.0812 136.616 16.6014 134.466 16.6014C133.242 16.6014 132.223 17.1259 131.481 18.2873H131.444C130.962 17.2571 130.016 16.6014 128.774 16.6014C127.402 16.6014 126.494 17.2571 125.901 18.2498H125.845V16.8824H122.953V26.4731Z" fill="#9F9FAC"/>
<path fill-rule="evenodd" clip-rule="evenodd" d="M15.6847 7.03734C14.5796 7.81811 13.5803 8.74123 12.7128 9.78039C16.2578 9.44784 20.7616 9.99084 25.9905 12.6325C31.5743 15.4533 36.0706 15.5487 39.1998 14.9388C38.9159 14.0702 38.5584 13.2354 38.135 12.4418C34.5529 12.8236 29.9606 12.3183 24.6088 9.61459C21.2103 7.89768 18.2145 7.19042 15.6847 7.03734ZM36.0425 9.43248C33.2137 6.239 29.1028 4.22925 24.5272 4.22925C23.1835 4.22925 21.8798 4.4026 20.6369 4.72835C22.3202 5.19244 24.1084 5.87138 25.9905 6.82224C29.9089 8.80176 33.2918 9.43913 36.0425 9.43248ZM39.8688 17.9877C36.0885 18.742 30.8681 18.5871 24.6088 15.4249C18.757 12.4685 14.0994 12.5058 10.9582 13.2111C10.7961 13.2475 10.6377 13.2857 10.4832 13.3255C10.072 14.2292 9.7437 15.1796 9.50815 16.1664C9.75973 16.0985 10.0197 16.0339 10.2879 15.9737C14.0988 15.118 19.4831 15.1552 25.9905 18.4428C31.8424 21.3991 36.4999 21.3619 39.6412 20.6565C39.7488 20.6324 39.8549 20.6075 39.9592 20.5817C39.9706 20.3356 39.9763 20.088 39.9763 19.839C39.9763 19.2126 39.9398 18.5949 39.8688 17.9877ZM39.4547 23.8759C35.711 24.5372 30.6427 24.2834 24.6088 21.2351C18.757 18.2788 14.0994 18.316 10.9582 19.0213C10.2609 19.1778 9.6337 19.3685 9.08039 19.5698C9.07888 19.6593 9.07812 19.7491 9.07812 19.839C9.07812 28.46 15.9949 35.4487 24.5272 35.4487C31.6779 35.4487 37.6939 30.5402 39.4547 23.8759Z" fill="#9F9FAC"/>
</svg>
