<svg width="148" height="40" viewBox="0 0 148 40" fill="none" xmlns="http://www.w3.org/2000/svg">
<path d="M46.7188 26.597H56.1096V23.7873H50.0565V13.2039H46.7188V26.597Z" fill="#9F9FAC"/>
<path d="M61.6734 24.7238C60.3345 24.7238 59.6368 23.5625 59.6368 21.8204C59.6368 20.0784 60.3345 18.8983 61.6734 18.8983C63.0122 18.8983 63.7288 20.0784 63.7288 21.8204C63.7288 23.5625 63.0122 24.7238 61.6734 24.7238ZM61.6922 26.8967C64.8037 26.8967 66.8403 24.7051 66.8403 21.8204C66.8403 18.9358 64.8037 16.7441 61.6922 16.7441C58.5997 16.7441 56.5254 18.9358 56.5254 21.8204C56.5254 24.7051 58.5997 26.8967 61.6922 26.8967Z" fill="#9F9FAC"/>
<path d="M72.2244 29.9125C73.6576 29.9125 74.921 29.594 75.7696 28.8448C76.5427 28.1517 77.0519 27.1027 77.0519 25.6604V17.0063H74.1102V18.0366H74.0724C73.5067 17.2311 72.6393 16.7253 71.357 16.7253C68.9622 16.7253 67.3027 18.7109 67.3027 21.5207C67.3027 24.4615 69.3205 26.0725 71.489 26.0725C72.6582 26.0725 73.3936 25.6042 73.9593 24.9673H74.0347V25.9226C74.0347 27.084 73.4879 27.7583 72.1867 27.7583C71.1684 27.7583 70.6593 27.3275 70.4896 26.8217H67.5102C67.8119 28.826 69.5656 29.9125 72.2244 29.9125ZM72.2056 23.8059C71.0553 23.8059 70.301 22.8693 70.301 21.427C70.301 19.9659 71.0553 19.0293 72.2056 19.0293C73.4879 19.0293 74.1667 20.1158 74.1667 21.4083C74.1667 22.757 73.5444 23.8059 72.2056 23.8059Z" fill="#9F9FAC"/>
<path d="M83.1011 24.7238C81.7623 24.7238 81.0646 23.5625 81.0646 21.8204C81.0646 20.0784 81.7623 18.8983 83.1011 18.8983C84.44 18.8983 85.1566 20.0784 85.1566 21.8204C85.1566 23.5625 84.44 24.7238 83.1011 24.7238ZM83.12 26.8967C86.2314 26.8967 88.2676 24.7051 88.2676 21.8204C88.2676 18.9358 86.2314 16.7441 83.12 16.7441C80.0274 16.7441 77.9531 18.9358 77.9531 21.8204C77.9531 24.7051 80.0274 26.8967 83.12 26.8967Z" fill="#9F9FAC"/>
<path d="M89.166 26.597H92.2397V17.0064H89.166V26.597ZM89.166 15.6764H92.2397V13.2039H89.166V15.6764Z" fill="#9F9FAC"/>
<path d="M93.5723 29.7626H96.646V25.6042H96.6837C97.2871 26.4096 98.1734 26.8967 99.418 26.8967C101.945 26.8967 103.623 24.9111 103.623 21.8016C103.623 18.917 102.058 16.7253 99.4934 16.7253C98.1734 16.7253 97.2305 17.306 96.5705 18.1677H96.514V17.0063H93.5723V29.7626ZM98.626 24.5365C97.306 24.5365 96.5517 23.4688 96.5517 21.914C96.5517 20.3593 97.2306 19.1792 98.5694 19.1792C99.8894 19.1792 100.512 20.2656 100.512 21.914C100.512 23.5437 99.7951 24.5365 98.626 24.5365Z" fill="#9F9FAC"/>
<path d="M108.628 26.8967C111.155 26.8967 113.022 25.8102 113.022 23.7123C113.022 21.2584 111.023 20.8276 109.326 20.5466C108.1 20.3218 107.006 20.2282 107.006 19.5538C107.006 18.9544 107.591 18.6734 108.345 18.6734C109.194 18.6734 109.778 18.9357 109.891 19.7973H112.72C112.569 17.9054 111.098 16.7253 108.364 16.7253C106.082 16.7253 104.197 17.7743 104.197 19.7973C104.197 22.0451 105.988 22.4947 107.666 22.7757C108.949 23.0005 110.118 23.0941 110.118 23.9558C110.118 24.5739 109.533 24.9111 108.609 24.9111C107.591 24.9111 106.95 24.4428 106.837 23.4875H103.933C104.027 25.6042 105.799 26.8967 108.628 26.8967Z" fill="#9F9FAC"/>
<path d="M117.197 26.878C118.536 26.878 119.384 26.3535 120.082 25.4169H120.139V26.597H123.08V17.0063H120.007V22.3636C120.007 23.5063 119.366 24.293 118.31 24.293C117.329 24.293 116.858 23.7123 116.858 22.6633V17.0063H113.803V23.3002C113.803 25.4356 114.972 26.878 117.197 26.878Z" fill="#9F9FAC"/>
<path d="M124.418 26.597H127.492V21.221C127.492 20.0783 128.057 19.2729 129.019 19.2729C129.943 19.2729 130.377 19.8723 130.377 20.9025V26.597H133.451V21.221C133.451 20.0783 133.997 19.2729 134.978 19.2729C135.902 19.2729 136.336 19.8723 136.336 20.9025V26.597H139.409V20.3593C139.409 18.2051 138.316 16.7253 136.128 16.7253C134.884 16.7253 133.847 17.2498 133.092 18.4112H133.055C132.564 17.381 131.603 16.7253 130.339 16.7253C128.944 16.7253 128.02 17.381 127.416 18.3737H127.36V17.0063H124.418V26.597Z" fill="#9F9FAC"/>
<path d="M27.9655 5.54298L24.8753 4.72046L22.2712 14.3748L19.9201 5.65879L16.8298 6.48132L19.37 15.8983L13.0429 9.61332L10.7807 11.8605L17.7207 18.7544L9.07803 16.454L8.25 19.5236L17.6932 22.0371C17.5851 21.5739 17.5279 21.0912 17.5279 20.5953C17.5279 17.085 20.3926 14.2393 23.9264 14.2393C27.4603 14.2393 30.325 17.085 30.325 20.5953C30.325 21.088 30.2685 21.5677 30.1617 22.0282L38.7438 24.3125L39.5718 21.2428L30.0911 18.7193L38.7343 16.4188L37.9062 13.3491L28.4259 15.8724L34.7529 9.58752L32.4907 7.34034L25.647 14.1386L27.9655 5.54298Z" fill="#9F9FAC"/>
<path d="M30.1523 22.064C29.8874 23.1766 29.328 24.1762 28.5605 24.9771L34.7779 31.1531L37.0401 28.906L30.1523 22.064Z" fill="#9F9FAC"/>
<path d="M28.4978 25.0416C27.7211 25.8297 26.7395 26.4178 25.6387 26.7208L27.9011 35.108L30.9913 34.2854L28.4978 25.0416Z" fill="#9F9FAC"/>
<path d="M25.5238 26.7515C25.0131 26.882 24.4778 26.9513 23.9262 26.9513C23.3351 26.9513 22.7628 26.8717 22.2195 26.7227L19.9551 35.1174L23.0453 35.9399L25.5238 26.7515Z" fill="#9F9FAC"/>
<path d="M22.11 26.6916C21.0261 26.3735 20.0619 25.7779 19.301 24.9875L13.0684 31.1788L15.3306 33.4259L22.11 26.6916Z" fill="#9F9FAC"/>
<path d="M19.2489 24.9329C18.5011 24.1376 17.9563 23.1514 17.6971 22.0559L9.08691 24.3477L9.91494 27.4173L19.2489 24.9329Z" fill="#9F9FAC"/>
</svg>
