<svg width="139" height="40" viewBox="0 0 139 40" fill="none" xmlns="http://www.w3.org/2000/svg">
<path d="M43.1826 26.5105H52.6739V23.6305H46.556V12.7825H43.1826V26.5105Z" fill="#9F9FAC"/>
<path d="M58.2978 24.5903C56.9446 24.5903 56.2394 23.3999 56.2394 21.6143C56.2394 19.8287 56.9446 18.6191 58.2978 18.6191C59.651 18.6191 60.3752 19.8287 60.3752 21.6143C60.3752 23.3999 59.651 24.5903 58.2978 24.5903ZM58.3168 26.8175C61.4615 26.8175 63.5199 24.5711 63.5199 21.6143C63.5199 18.6575 61.4615 16.4111 58.3168 16.4111C55.1912 16.4111 53.0947 18.6575 53.0947 21.6143C53.0947 24.5711 55.1912 26.8175 58.3168 26.8175Z" fill="#9F9FAC"/>
<path d="M68.9626 29.9088C70.4111 29.9088 71.688 29.5824 72.5457 28.8144C73.3271 28.104 73.8417 27.0288 73.8417 25.5504V16.68H70.8685V17.736H70.8304C70.2586 16.9104 69.3819 16.392 68.0859 16.392C65.6655 16.392 63.9883 18.4272 63.9883 21.3072C63.9883 24.3216 66.0276 25.9728 68.2193 25.9728C69.401 25.9728 70.1443 25.4928 70.716 24.84H70.7923V25.8192C70.7923 27.0096 70.2396 27.7008 68.9245 27.7008C67.8953 27.7008 67.3807 27.2592 67.2092 26.7408H64.1979C64.5029 28.7952 66.2753 29.9088 68.9626 29.9088ZM68.9436 23.6496C67.781 23.6496 67.0186 22.6896 67.0186 21.2112C67.0186 19.7136 67.781 18.7536 68.9436 18.7536C70.2396 18.7536 70.9257 19.8672 70.9257 21.192C70.9257 22.5744 70.2967 23.6496 68.9436 23.6496Z" fill="#9F9FAC"/>
<path d="M79.955 24.5903C78.6018 24.5903 77.8967 23.3999 77.8967 21.6143C77.8967 19.8287 78.6018 18.6191 79.955 18.6191C81.3082 18.6191 82.0324 19.8287 82.0324 21.6143C82.0324 23.3999 81.3082 24.5903 79.955 24.5903ZM79.9741 26.8175C83.1188 26.8175 85.1771 24.5711 85.1771 21.6143C85.1771 18.6575 83.1188 16.4111 79.9741 16.4111C76.8484 16.4111 74.752 18.6575 74.752 21.6143C74.752 24.5711 76.8484 26.8175 79.9741 26.8175Z" fill="#9F9FAC"/>
<path d="M86.084 26.5105H89.1906V16.6801H86.084V26.5105ZM86.084 15.3169H89.1906V12.7825H86.084V15.3169Z" fill="#9F9FAC"/>
<path d="M90.5391 29.7552H93.6456V25.4928H93.6838C94.2937 26.3184 95.1894 26.8176 96.4473 26.8176C99.0012 26.8176 100.697 24.7824 100.697 21.5952C100.697 18.6384 99.1155 16.392 96.5235 16.392C95.1894 16.392 94.2365 16.9872 93.5694 17.8704H93.5122V16.68H90.5391V29.7552ZM95.6468 24.3984C94.3127 24.3984 93.5504 23.304 93.5504 21.7104C93.5504 20.1168 94.2365 18.9072 95.5896 18.9072C96.9238 18.9072 97.5527 20.0208 97.5527 21.7104C97.5527 23.3808 96.8285 24.3984 95.6468 24.3984Z" fill="#9F9FAC"/>
<path d="M105.755 26.8176C108.309 26.8176 110.196 25.704 110.196 23.5536C110.196 21.0384 108.176 20.5968 106.461 20.3088C105.222 20.0784 104.116 19.9824 104.116 19.2912C104.116 18.6768 104.707 18.3888 105.47 18.3888C106.327 18.3888 106.918 18.6576 107.032 19.5408H109.891C109.739 17.6016 108.252 16.392 105.489 16.392C103.182 16.392 101.277 17.4672 101.277 19.5408C101.277 21.8448 103.087 22.3056 104.783 22.5936C106.079 22.824 107.261 22.92 107.261 23.8032C107.261 24.4368 106.67 24.7824 105.736 24.7824C104.707 24.7824 104.059 24.3024 103.945 23.3232H101.01C101.105 25.4928 102.897 26.8176 105.755 26.8176Z" fill="#9F9FAC"/>
<path d="M114.417 26.7983C115.77 26.7983 116.628 26.2607 117.333 25.3007H117.39V26.5103H120.363V16.6799H117.257V22.1711C117.257 23.3423 116.609 24.1487 115.541 24.1487C114.55 24.1487 114.074 23.5535 114.074 22.4783V16.6799H110.986V23.1311C110.986 25.3199 112.168 26.7983 114.417 26.7983Z" fill="#9F9FAC"/>
<path d="M121.713 26.5105H124.819V21.0001C124.819 19.8289 125.391 19.0033 126.363 19.0033C127.297 19.0033 127.735 19.6177 127.735 20.6737V26.5105H130.842V21.0001C130.842 19.8289 131.395 19.0033 132.386 19.0033C133.32 19.0033 133.758 19.6177 133.758 20.6737V26.5105H136.865V20.1169C136.865 17.9089 135.759 16.3921 133.548 16.3921C132.291 16.3921 131.242 16.9297 130.48 18.1201H130.442C129.946 17.0641 128.974 16.3921 127.697 16.3921C126.287 16.3921 125.353 17.0641 124.743 18.0817H124.686V16.6801H121.713V26.5105Z" fill="#9F9FAC"/>
<path fill-rule="evenodd" clip-rule="evenodd" d="M18.4253 36.1103C27.1969 36.1103 34.3077 28.9469 34.3077 20.1103C34.3077 11.2738 27.1969 4.11035 18.4253 4.11035C9.65373 4.11035 2.54297 11.2738 2.54297 20.1103C2.54297 28.9469 9.65373 36.1103 18.4253 36.1103ZM23.3801 11.5638C23.6212 10.7008 22.7899 10.1905 22.0306 10.7354L11.4316 18.342C10.6082 18.933 10.7377 20.1103 11.6262 20.1103H14.4172V20.0886H19.8567L15.4245 21.664L13.4706 28.6569C13.2294 29.5199 14.0607 30.0302 14.82 29.4853L25.419 21.8787C26.2425 21.2878 26.1129 20.1103 25.2245 20.1103H20.992L23.3801 11.5638Z" fill="#9F9FAC"/>
</svg>
