<?xml version="1.0" standalone="no"?>
<!DOCTYPE svg PUBLIC "-//W3C//DTD SVG 20010904//EN"
 "http://www.w3.org/TR/2001/REC-SVG-20010904/DTD/svg10.dtd">
<svg version="1.0" xmlns="http://www.w3.org/2000/svg"
 width="720.000000pt" height="720.000000pt" viewBox="0 0 720.000000 720.000000"
 preserveAspectRatio="xMidYMid meet">
<metadata>
Created by potrace 1.14, written by Peter Selinger 2001-2017
</metadata>
<g transform="translate(0.000000,720.000000) scale(0.100000,-0.100000)"
fill="#000000" stroke="none">
<path d="M430 6745 l0 -25 995 0 995 0 0 25 0 25 -995 0 -995 0 0 -25z"/>
<path d="M2600 5775 l0 -995 165 0 165 0 0 995 0 995 -165 0 -165 0 0 -995z"/>
<path d="M2980 5775 l0 -995 150 0 150 0 0 995 0 995 -150 0 -150 0 0 -995z"/>
<path d="M3350 5775 l0 -995 140 0 140 0 0 995 0 995 -140 0 -140 0 0 -995z"/>
<path d="M3730 5775 l0 -995 125 0 125 0 0 995 0 995 -125 0 -125 0 0 -995z"/>
<path d="M4100 5775 l0 -995 115 0 115 0 0 995 0 995 -115 0 -115 0 0 -995z"/>
<path d="M4470 5775 l0 -995 105 0 105 0 0 995 0 995 -105 0 -105 0 0 -995z"/>
<path d="M4850 5775 l0 -995 90 0 90 0 0 995 0 995 -90 0 -90 0 0 -995z"/>
<path d="M5220 5775 l0 -995 80 0 80 0 0 995 0 995 -80 0 -80 0 0 -995z"/>
<path d="M5600 5775 l0 -995 65 0 65 0 0 995 0 995 -65 0 -65 0 0 -995z"/>
<path d="M5970 5775 l0 -995 50 0 50 0 0 995 0 995 -50 0 -50 0 0 -995z"/>
<path d="M6350 5775 l0 -995 35 0 35 0 0 995 0 995 -35 0 -35 0 0 -995z"/>
<path d="M6720 5775 l0 -995 25 0 25 0 0 995 0 995 -25 0 -25 0 0 -995z"/>
<path d="M430 6385 l0 -35 995 0 995 0 0 35 0 35 -995 0 -995 0 0 -35z"/>
<path d="M430 6020 l0 -50 995 0 995 0 0 50 0 50 -995 0 -995 0 0 -50z"/>
<path d="M430 5665 l0 -65 995 0 995 0 0 65 0 65 -995 0 -995 0 0 -65z"/>
<path d="M430 5300 l0 -80 995 0 995 0 0 80 0 80 -995 0 -995 0 0 -80z"/>
<path d="M430 4940 l0 -90 995 0 995 0 0 90 0 90 -995 0 -995 0 0 -90z"/>
<path d="M430 4575 l0 -105 995 0 995 0 0 105 0 105 -995 0 -995 0 0 -105z"/>
<path d="M4780 4435 l0 -165 995 0 995 0 0 165 0 165 -995 0 -995 0 0 -165z"/>
<path d="M430 4215 l0 -115 995 0 995 0 0 115 0 115 -995 0 -995 0 0 -115z"/>
<path d="M4780 4070 l0 -150 995 0 995 0 0 150 0 150 -995 0 -995 0 0 -150z"/>
<path d="M430 3855 l0 -125 995 0 995 0 0 125 0 125 -995 0 -995 0 0 -125z"/>
<path d="M4780 3710 l0 -140 995 0 995 0 0 140 0 140 -995 0 -995 0 0 -140z"/>
<path d="M430 3490 l0 -140 995 0 995 0 0 140 0 140 -995 0 -995 0 0 -140z"/>
<path d="M4780 3345 l0 -125 995 0 995 0 0 125 0 125 -995 0 -995 0 0 -125z"/>
<path d="M430 3130 l0 -150 995 0 995 0 0 150 0 150 -995 0 -995 0 0 -150z"/>
<path d="M4780 2985 l0 -115 995 0 995 0 0 115 0 115 -995 0 -995 0 0 -115z"/>
<path d="M430 2765 l0 -165 995 0 995 0 0 165 0 165 -995 0 -995 0 0 -165z"/>
<path d="M4780 2625 l0 -105 995 0 995 0 0 105 0 105 -995 0 -995 0 0 -105z"/>
<path d="M430 1425 l0 -995 25 0 25 0 0 995 0 995 -25 0 -25 0 0 -995z"/>
<path d="M780 1425 l0 -995 35 0 35 0 0 995 0 995 -35 0 -35 0 0 -995z"/>
<path d="M1130 1425 l0 -995 50 0 50 0 0 995 0 995 -50 0 -50 0 0 -995z"/>
<path d="M1470 1425 l0 -995 65 0 65 0 0 995 0 995 -65 0 -65 0 0 -995z"/>
<path d="M1820 1425 l0 -995 80 0 80 0 0 995 0 995 -80 0 -80 0 0 -995z"/>
<path d="M2170 1425 l0 -995 90 0 90 0 0 995 0 995 -90 0 -90 0 0 -995z"/>
<path d="M2520 1425 l0 -995 105 0 105 0 0 995 0 995 -105 0 -105 0 0 -995z"/>
<path d="M2870 1425 l0 -995 115 0 115 0 0 995 0 995 -115 0 -115 0 0 -995z"/>
<path d="M3220 1425 l0 -995 125 0 125 0 0 995 0 995 -125 0 -125 0 0 -995z"/>
<path d="M3570 1425 l0 -995 140 0 140 0 0 995 0 995 -140 0 -140 0 0 -995z"/>
<path d="M3920 1425 l0 -995 150 0 150 0 0 995 0 995 -150 0 -150 0 0 -995z"/>
<path d="M4270 1425 l0 -995 165 0 165 0 0 995 0 995 -165 0 -165 0 0 -995z"/>
<path d="M4780 2260 l0 -90 995 0 995 0 0 90 0 90 -995 0 -995 0 0 -90z"/>
<path d="M4780 1900 l0 -80 995 0 995 0 0 80 0 80 -995 0 -995 0 0 -80z"/>
<path d="M4782 1538 l3 -63 993 -3 992 -2 0 65 0 65 -995 0 -996 0 3 -62z"/>
<path d="M4780 1180 l0 -50 995 0 995 0 0 50 0 50 -995 0 -995 0 0 -50z"/>
<path d="M4780 815 l0 -35 995 0 995 0 0 35 0 35 -995 0 -995 0 0 -35z"/>
<path d="M4780 455 l0 -25 995 0 995 0 0 25 0 25 -995 0 -995 0 0 -25z"/>
</g>
</svg>
