<svg width="32" height="31" viewBox="0 0 32 31" fill="none" xmlns="http://www.w3.org/2000/svg">
<path fill-rule="evenodd" clip-rule="evenodd" d="M1.65257 1.65257C1.75025 1.55488 1.88275 1.5 2.0209 1.5H22.3552C22.4934 1.5 22.6259 1.55488 22.7236 1.65257C22.8213 1.75025 22.8761 1.88275 22.8761 2.0209V8.32678C22.8752 8.34254 22.8747 8.35843 22.8747 8.37444C22.8747 8.39045 22.8752 8.40634 22.8761 8.4221V16.0008C22.8761 16.1389 22.8213 16.2714 22.7236 16.3691C22.6259 16.4668 22.4934 16.5217 22.3552 16.5217H8.41182C8.39925 16.521 8.38661 16.5207 8.37389 16.5207C8.36117 16.5207 8.34853 16.521 8.33597 16.5217H7.04094C6.86937 16.5217 6.70299 16.5805 6.56955 16.6883L1.5 20.7849V2.0209C1.5 1.88275 1.55488 1.75025 1.65257 1.65257ZM7.62389 18.0217H7.3061L1.22139 22.9386C0.996632 23.1202 0.687523 23.1566 0.426768 23.032C0.166014 22.9075 0 22.6442 0 22.3552V2.0209C0 1.48492 0.212916 0.970899 0.591907 0.591907C0.970899 0.212916 1.48492 0 2.0209 0H22.3552C22.8912 0 23.4052 0.212915 23.7842 0.591907C24.1632 0.9709 24.3761 1.48492 24.3761 2.0209V7.62444H29.9791C30.5151 7.62444 31.0291 7.83736 31.4081 8.21635C31.7871 8.59534 32 9.10936 32 9.64534V29.9797C32 30.2687 31.834 30.5319 31.5733 30.6565C31.3125 30.781 31.0034 30.7447 30.7786 30.563L24.6939 25.6461H9.64479C9.10881 25.6461 8.59479 25.4332 8.2158 25.0542C7.83681 24.6752 7.62389 24.1612 7.62389 23.6252V18.0217ZM9.12389 18.0217V23.6252C9.12389 23.7634 9.17877 23.8958 9.27646 23.9935C9.37414 24.0912 9.50664 24.1461 9.64479 24.1461H24.9591C25.1307 24.1461 25.297 24.2049 25.4305 24.3128L30.5 28.4094V9.64534C30.5 9.50718 30.4452 9.37469 30.3475 9.27701C30.2498 9.17932 30.1173 9.12444 29.9791 9.12444H24.3761V16.0008C24.3761 16.5367 24.1632 17.0508 23.7842 17.4298C23.4052 17.8087 22.8912 18.0217 22.3552 18.0217H9.12389Z" fill="black"/>
</svg>
