<svg width="32" height="32" viewBox="0 0 32 32" fill="none" xmlns="http://www.w3.org/2000/svg">
<path fill-rule="evenodd" clip-rule="evenodd" d="M15.2869 6.61445L18.6478 3.2535C19.932 2.08889 21.6146 1.46168 23.3481 1.50181C25.0874 1.54208 26.7442 2.25094 27.9743 3.48108C29.2045 4.71123 29.9133 6.36806 29.9536 8.10728C29.9937 9.84065 29.3667 11.523 28.2024 12.8071L23.3937 17.5988L23.3917 17.6008C22.7665 18.2283 22.0235 18.7263 21.2054 19.0661C20.3872 19.4059 19.5101 19.5808 18.6242 19.5808C17.7383 19.5808 16.8611 19.4059 16.043 19.0661C15.2249 18.7263 14.4819 18.2283 13.8566 17.6008C13.5643 17.3073 13.0894 17.3064 12.796 17.5988C12.5026 17.8911 12.5017 18.366 12.794 18.6594C13.5586 19.4269 14.4672 20.0359 15.4677 20.4514C16.4682 20.8669 17.5409 21.0808 18.6242 21.0808C19.7075 21.0808 20.7802 20.8669 21.7807 20.4514C22.7808 20.036 23.689 19.4274 24.4534 18.6604L24.4544 18.6594L29.2742 13.8566C29.2828 13.8481 29.2911 13.8394 29.2992 13.8306C30.7309 12.2597 31.5024 10.1975 31.4532 8.07256C31.404 5.94764 30.538 3.92337 29.035 2.42042C27.532 0.917469 25.5078 0.0514104 23.3829 0.00221608C21.2579 -0.0469783 19.1958 0.724475 17.6249 2.15626C17.6163 2.16406 17.6079 2.17205 17.5998 2.18024L14.2262 5.55379C13.9333 5.84668 13.9333 6.32156 14.2262 6.61445C14.5191 6.90734 14.994 6.90734 15.2869 6.61445ZM10.2501 12.3893C11.0682 12.0495 11.9453 11.8746 12.8312 11.8746C13.7171 11.8746 14.5943 12.0495 15.4124 12.3893C16.2305 12.7291 16.9735 13.2271 17.5988 13.8546C17.8911 14.1481 18.366 14.149 18.6594 13.8566C18.9529 13.5643 18.9538 13.0894 18.6614 12.796C17.8968 12.0285 16.9882 11.4195 15.9877 11.004C14.9872 10.5885 13.9146 10.3746 12.8312 10.3746C11.7479 10.3746 10.6752 10.5885 9.67473 11.004C8.67469 11.4194 7.76646 12.028 7.00207 12.7949L7.00104 12.796L2.18118 17.5988C2.17266 17.6073 2.16436 17.616 2.15626 17.6248C0.724475 19.1957 -0.0469783 21.2579 0.00221608 23.3828C0.0514104 25.5078 0.917469 27.532 2.42042 29.035C3.92337 30.5379 5.94764 31.404 8.07256 31.4532C10.1975 31.5024 12.2597 30.7309 13.8306 29.2991C13.8391 29.2913 13.8475 29.2833 13.8557 29.2752L17.2292 25.9016C17.5221 25.6087 17.5221 25.1338 17.2292 24.841C16.9363 24.5481 16.4615 24.5481 16.1686 24.841L12.8076 28.2019C11.5234 29.3665 9.84086 29.9937 8.10728 29.9536C6.36806 29.9133 4.71123 29.2045 3.48108 27.9743C2.25094 26.7442 1.54208 25.0873 1.50181 23.3481C1.46168 21.6147 2.08873 19.9324 3.25306 18.6483L8.06176 13.8566L8.06369 13.8546C8.68893 13.2271 9.43192 12.7291 10.2501 12.3893Z" fill="black"/>
</svg>
