<svg width="40" height="40" viewBox="0 0 40 40" fill="none" xmlns="http://www.w3.org/2000/svg">
<g clip-path="url(#clip0_48_436)">
<path d="M14.4685 20C14.4685 18.0222 15.055 16.0888 16.1538 14.4443C17.2526 12.7998 18.8144 11.5181 20.6417 10.7612C22.4689 10.0043 24.4796 9.8063 26.4194 10.1922C28.3592 10.578 30.141 11.5304 31.5396 12.9289C32.9381 14.3275 33.8905 16.1093 34.2764 18.0491C34.6622 19.9889 34.4642 21.9996 33.7073 23.8268C32.9504 25.6541 31.6687 27.2159 30.0242 28.3147C28.3797 29.4135 26.4463 30 24.4685 30H13.4685C11.612 30 9.83151 29.2625 8.51876 27.9498C7.206 26.637 6.46851 24.8565 6.46851 23C6.46851 21.1435 7.206 19.363 8.51876 18.0503C9.83151 16.7375 11.612 16 13.4685 16C14.0542 15.9998 14.6377 16.0711 15.206 16.2125" stroke="black" stroke-width="1.5" strokeLinecap="round" stroke-linejoin="round"/>
</g>
<defs>
<clipPath id="clip0_48_436">
<rect width="40" height="40" fill="white"/>
</clipPath>
</defs>
</svg>
