<svg width="40" height="40" viewBox="0 0 40 40" fill="none" xmlns="http://www.w3.org/2000/svg">
<g clip-path="url(#clip0_48_446)">
<path fill-rule="evenodd" clip-rule="evenodd" d="M36.5883 28.6128C36.5883 29.5414 35.8356 30.2942 34.907 30.2942H22.7501H10.5932C9.66464 30.2942 8.91187 29.5414 8.91187 28.6128V25.7158H36.5883V28.6128ZM23.5001 31.7942H34.907C36.664 31.7942 38.0883 30.3699 38.0883 28.6128V11.5932C38.0883 9.83622 36.664 8.41187 34.907 8.41187H10.5932C8.83622 8.41187 7.41187 9.83622 7.41187 11.5932V24.9635L7.41187 24.9658L7.41187 24.968V28.6128C7.41187 30.3699 8.83622 31.7942 10.5932 31.7942H22.0001V35.157H17.8874C17.4731 35.157 17.1374 35.4928 17.1374 35.907C17.1374 36.3212 17.4731 36.657 17.8874 36.657H22.7501H27.6128C28.0271 36.657 28.3628 36.3212 28.3628 35.907C28.3628 35.4928 28.0271 35.157 27.6128 35.157H23.5001V31.7942ZM36.5883 24.2158H8.91187V11.5932C8.91187 10.6646 9.66464 9.91187 10.5932 9.91187H34.907C35.8356 9.91187 36.5883 10.6646 36.5883 11.5932V24.2158Z" fill="black"/>
</g>
<defs>
<clipPath id="clip0_48_446">
<rect width="40" height="40" fill="white"/>
</clipPath>
</defs>
</svg>
