<svg width="22" height="23" viewBox="0 0 22 23" fill="none" xmlns="http://www.w3.org/2000/svg">
<path fill-rule="evenodd" clip-rule="evenodd" d="M11.5077 0.75C11.5077 0.335786 11.1719 0 10.7577 0C10.3434 0 10.0077 0.335786 10.0077 0.75V4.1703H3.25194C1.45594 4.1703 0 5.62624 0 7.42224V19.098C0 20.894 1.45594 22.3499 3.25194 22.3499H18.2636C20.0596 22.3499 21.5156 20.894 21.5156 19.098V7.42224C21.5156 5.62624 20.0596 4.1703 18.2636 4.1703H11.5077V0.75ZM3.25194 5.6703C2.28437 5.6703 1.5 6.45467 1.5 7.42224V19.098C1.5 20.0656 2.28437 20.8499 3.25194 20.8499H18.2636C19.2312 20.8499 20.0156 20.0656 20.0156 19.098V7.42224C20.0156 6.45467 19.2312 5.6703 18.2636 5.6703H3.25194ZM7.00525 14.8439C6.26797 14.8439 5.6703 15.4415 5.6703 16.1788C5.6703 16.9161 6.26797 17.5138 7.00525 17.5138H7.9229V14.8439H7.00525ZM12.0932 17.5138H9.4229V14.8439H12.0932V17.5138ZM7.00525 13.3439H8.6729H12.8432H14.5111C16.0768 13.3439 17.346 14.6131 17.346 16.1788C17.346 17.7445 16.0768 19.0138 14.5111 19.0138H7.00525C5.43955 19.0138 4.1703 17.7445 4.1703 16.1788C4.1703 14.6131 5.43955 13.3439 7.00525 13.3439ZM13.5932 17.5138H14.5111C15.2484 17.5138 15.846 16.9161 15.846 16.1788C15.846 15.4415 15.2484 14.8439 14.5111 14.8439H13.5932V17.5138ZM6.17119 11.3825C6.74683 11.3825 7.21348 10.9158 7.21348 10.3402C7.21348 9.76456 6.74683 9.29791 6.17119 9.29791C5.59555 9.29791 5.1289 9.76456 5.1289 10.3402C5.1289 10.9158 5.59555 11.3825 6.17119 11.3825ZM16.3866 10.3402C16.3866 10.9158 15.9199 11.3825 15.3443 11.3825C14.7686 11.3825 14.302 10.9158 14.302 10.3402C14.302 9.76456 14.7686 9.29791 15.3443 9.29791C15.9199 9.29791 16.3866 9.76456 16.3866 10.3402Z" fill="black"/>
</svg>
