<svg width="34" height="34" viewBox="0 0 34 34" fill="none" xmlns="http://www.w3.org/2000/svg">
<path d="M17 24.6492C21.2246 24.6492 24.6494 21.2244 24.6494 16.9998C24.6494 12.7751 21.2246 9.35035 17 9.35035C12.7754 9.35035 9.3506 12.7751 9.3506 16.9998C9.3506 21.2244 12.7754 24.6492 17 24.6492Z" stroke="black" stroke-width="1.5" stroke-linecap="round" stroke-linejoin="round"/>
<path d="M25.8765 6.9761C26.2802 7.34794 26.6627 7.73041 27.0239 8.12351L31.3745 8.74502C32.0834 9.9761 32.6298 11.2938 33 12.6653L30.3546 16.1873C30.3546 16.1873 30.4024 17.2709 30.3546 17.8128L33 21.3347C32.6315 22.7067 32.085 24.0247 31.3745 25.255L27.0239 25.8765C27.0239 25.8765 26.2749 26.6574 25.8765 27.0239L25.255 31.3745C24.0239 32.0834 22.7062 32.6298 21.3347 33L17.8128 30.3546C17.272 30.4024 16.728 30.4024 16.1873 30.3546L12.6653 33C11.2933 32.6315 9.9753 32.085 8.74502 31.3745L8.12351 27.0239C7.73041 26.6521 7.34794 26.2696 6.9761 25.8765L2.6255 25.255C1.91662 24.0239 1.37024 22.7062 1 21.3347L3.64542 17.8128C3.64542 17.8128 3.59761 16.7291 3.64542 16.1873L1 12.6653C1.36853 11.2933 1.915 9.9753 2.6255 8.74502L6.9761 8.12351C7.34794 7.73041 7.73041 7.34794 8.12351 6.9761L8.74502 2.6255C9.9761 1.91662 11.2938 1.37024 12.6653 1L16.1873 3.64542C16.728 3.5976 17.272 3.5976 17.8128 3.64542L21.3347 1C22.7067 1.36853 24.0247 1.915 25.255 2.6255L25.8765 6.9761Z" stroke="black" stroke-width="1.5" stroke-linecap="round" stroke-linejoin="round"/>
</svg>
